:FULLY-SPECIFIED
:FORCE-ALL-JOINTS-BE-3DOF
:DEGREES
476
root 3.583 16.3128 -7.12998 4.87165 62.1082 -6.77021
lfemur -38.9614 -1.63545 -21.4423
ltibia 48.9712 -0 0
lfoot -20.9386 -2.29788 -0.000566521
ltoes 16.8624 -0 0
rfemur -28.7898 -0.803002 11.3029
rtibia 70.7746 -0 0
rfoot 0 0 0
rtoes -25.8172 0 0
lowerback 2.10948 -0.257851 1.62284
upperback -0.435954 -0.279331 1.00754
thorax -1.62257 -0.146228 0.140022
lowerneck 0 0 0
upperneck 4.19978 -9.2836 1.50621
head 2.87976 -4.54929 -0.0758967
lclavicle 0 0 0
lhumerus -48.4715 -28.0915 109.067
lradius 0 0 0
lwrist 0 0 0
lhand -7.07809 -4.60205 0.473212
lfingers 0 0 0
lthumb 0 0 0
rclavicle 0 0 0
rhumerus 0 0 0
rradius 64.311 -0 0
rwrist 17.4451 0 0
rhand 0 0 0
rfingers 0 0 0
rthumb 0.553763 -55.7996 0.0718517
477
root 3.66756 16.3335 -7.08745 5.16487 63.6025 -6.05551
lfemur -37.8689 -3.15258 -21.8304
ltibia 48.3545 -0 0
lfoot -20.9869 -2.27574 -0.000485824
ltoes 17.2082 -0 0
rfemur -30.9428 -0.704093 11.0923
rtibia 73.3363 -0 0
rfoot 0 0 0
rtoes -24.0663 0 0
lowerback 2.25329 -0.287661 1.31533
upperback -0.405081 -0.327386 0.905564
thorax -1.6721 -0.168539 0.208969
lowerneck 0 0 0
upperneck 4.30793 -9.53688 1.5801
head 2.93183 -4.67335 -0.0395441
lclavicle 0 0 0
lhumerus -48.6271 -28.4238 109.373
lradius 0 0 0
lwrist 0 0 0
lhand -5.72205 -3.94324 0.405603
lfingers 0 0 0
lthumb 0 0 0
rclavicle 0 0 0
rhumerus 0 0 0
rradius 64.4911 -0 0
rwrist 18.0012 0 0
rhand 0 0 0
rfingers 0 0 0
rthumb 0.973734 -55.4763 0.0616132
478
root 3.7515 16.3531 -7.04425 5.48841 64.9777 -5.3459
lfemur -36.8515 -4.54358 -22.2143
ltibia 47.7864 -0 0
lfoot -21.0315 -2.25535 -0.00039493
ltoes 17.5268 -0 0
rfemur -32.9268 -0.620027 10.895
rtibia 75.6965 -0 0
rfoot 0 0 0
rtoes -22.4531 0 0
lowerback 2.38592 -0.314443 1.03195
upperback -0.37656 -0.371613 0.811588
thorax -1.71776 -0.189044 0.27251
lowerneck 0 0 0
upperneck 4.40735 -9.77037 1.6478
head 2.97974 -4.78769 -0.00614506
lclavicle 0 0 0
lhumerus -48.7727 -28.7293 109.657
lradius 0 0 0
lwrist 0 0 0
lhand -4.47344 -3.33782 0.329532
lfingers 0 0 0
lthumb 0 0 0
rclavicle 0 0 0
rhumerus 0 0 0
rradius 64.657 -0 0
rwrist 18.5136 0 0
rhand 0 0 0
rfingers 0 0 0
rthumb 1.36062 -55.1784 0.0500824
479
root 3.83451 16.3716 -7.00016 5.82916 66.2087 -4.66086
lfemur -35.9297 -5.78441 -22.5801
ltibia 47.2771 -0 0
lfoot -21.0715 -2.23707 -0.000299973
ltoes 17.8124 -0 0
rfemur -34.7054 -0.550519 10.7158
rtibia 77.812 -0 0
rfoot 0 0 0
rtoes -21.0071 0 0
lowerback 2.50492 -0.337891 0.777883
upperback -0.350934 -0.411216 0.727334
thorax -1.7587 -0.20738 0.329478
lowerneck 0 0 0
upperneck 4.49629 -9.97975 1.70818
head 3.02264 -4.89019 0.0237151
lclavicle 0 0 0
lhumerus -48.905 -29.0026 109.912
lradius 0 0 0
lwrist 0 0 0
lhand -3.35501 -2.79669 0.250153
lfingers 0 0 0
lthumb 0 0 0
rclavicle 0 0 0
rhumerus 0 0 0
rradius 64.8057 -0 0
rwrist 18.9729 0 0
rhand 0 0 0
rfingers 0 0 0
rthumb 1.70734 -54.9115 0.0380379
480
root 3.91632 16.3887 -6.95493 6.16819 67.2707 -4.02563
lfemur -35.1252 -6.85156 -22.913
ltibia 46.8371 -0 0
lfoot -21.106 -2.22128 -0.000207672
ltoes 18.0591 -0 0
rfemur -36.2421 -0.49497 10.5594
rtibia 79.6397 -0 0
rfoot 0 0 0
rtoes -19.7579 0 0
lowerback 2.60781 -0.357723 0.558346
upperback -0.328748 -0.4454 0.654528
thorax -1.79409 -0.223188 0.378706
lowerneck 0 0 0
upperneck 4.57299 -10.1607 1.76011
head 3.05966 -4.97877 0.0494544
lclavicle 0 0 0
lhumerus -49.0207 -29.2383 110.134
lradius 0 0 0
lwrist 0 0 0
lhand -2.38938 -2.33051 0.173083
lfingers 0 0 0
lthumb 0 0 0
rclavicle 0 0 0
rhumerus 0 0 0
rradius 64.9341 -0 0
rwrist 19.3697 0 0
rhand 0 0 0
rfingers 0 0 0
rthumb 2.00684 -54.681 0.0263319
481
root 3.99664 16.4046 -6.90834 6.48099 68.1392 -3.4711
lfemur -34.4603 -7.72189 -23.1974
ltibia 46.4768 -0 0
lfoot -21.1343 -2.20835 -0.000125001
ltoes 18.2612 -0 0
rfemur -37.5006 -0.452619 10.4302
rtibia 81.1364 -0 0
rfoot 0 0 0
rtoes -18.7349 0 0
lowerback 2.69213 -0.37367 0.378542
upperback -0.310547 -0.473372 0.594898
thorax -1.82308 -0.236111 0.419026
lowerneck 0 0 0
upperneck 4.63571 -10.309 1.80247
head 3.08996 -5.05132 0.070492
lclavicle 0 0 0
lhumerus -49.1165 -29.431 110.317
lradius 0 0 0
lwrist 0 0 0
lhand -1.59913 -1.94976 0.104128
lfingers 0 0 0
lthumb 0 0 0
rclavicle 0 0 0
rhumerus 0 0 0
rradius 65.0393 -0 0
rwrist 19.6946 0 0
rhand 0 0 0
rfingers 0 0 0
rthumb 2.25207 -54.4922 0.0158486
482
root 4.07518 16.4191 -6.86016 6.73881 68.7898 -3.03244
lfemur -33.9578 -8.37246 -23.4178
ltibia 46.2066 -0 0
lfoot -21.1555 -2.19865 -5.88106e-05
ltoes 18.4127 -0 0
rfemur -38.4445 -0.422724 10.3327
rtibia 82.259 -0 0
rfoot 0 0 0
rtoes -17.9676 0 0
lowerback 2.75539 -0.385457 0.243672
upperback -0.296877 -0.494339 0.550169
thorax -1.84482 -0.245789 0.449271
lowerneck 0 0 0
upperneck 4.6827 -10.4202 1.83414
head 3.11266 -5.10574 0.0862464
lclavicle 0 0 0
lhumerus -49.1889 -29.5754 110.454
lradius 0 0 0
lwrist 0 0 0
lhand -1.00675 -1.66485 0.0489702
lfingers 0 0 0
lthumb 0 0 0
rclavicle 0 0 0
rhumerus 0 0 0
rradius 65.1182 -0 0
rwrist 19.9383 0 0
rhand 0 0 0
rfingers 0 0 0
rthumb 2.43596 -54.3507 0.00745608
483
root 4.15166 16.4322 -6.81015 6.91188 69.1981 -2.74597
lfemur -33.6404 -8.78016 -23.5594
ltibia 46.0368 -0 0
lfoot -21.1688 -2.19255 -1.53939e-05
ltoes 18.5079 -0 0
rfemur -39.0376 -0.404766 10.2712
rtibia 82.9641 -0 0
rfoot 0 0 0
rtoes -17.4856 0 0
lowerback 2.79515 -0.392785 0.15894
upperback -0.288281 -0.507505 0.522068
thorax -1.85849 -0.251864 0.468272
lowerneck 0 0 0
upperneck 4.71219 -10.4901 1.854
head 3.12692 -5.13993 0.0961331
lclavicle 0 0 0
lhumerus -49.2346 -29.666 110.541
lradius 0 0 0
lwrist 0 0 0
lhand -0.634756 -1.48616 0.0128147
lfingers 0 0 0
lthumb 0 0 0
rclavicle 0 0 0
rhumerus 0 0 0
rradius 65.1678 -0 0
rwrist 20.0914 0 0
rhand 0 0 0
rfingers 0 0 0
rthumb 2.55148 -54.2618 0.00195159
484
root 4.22579 16.4437 -6.75809 6.97404 69.3397 -2.6445
lfemur -33.53 -8.92142 -23.6091
ltibia 45.9779 0 0
lfoot -21.1734 -2.19044 0
ltoes 18.5409 0 0
rfemur -39.2433 -0.398685 10.2498
rtibia 83.2088 0 0
rfoot 18.6477 5.00504 0
rtoes -17.3184 0 0
lowerback 2.80895 -0.395314 0.129542
upperback -0.285297 -0.512072 0.512318
thorax -1.86323 -0.25397 0.474865
lowerneck -8.51357 -7.80601 -0.373066
upperneck 4.72242 -10.5143 1.86088
head 3.13186 -5.15179 0.0995613
lclavicle 7.92033e-16 -5.54112e-15 0
lhumerus -49.2505 -29.6974 110.571
lradius 56.3056 0 0
lwrist 4.94023 0 0
lhand -0.505724 -1.42422 0
lfingers 7.12502 0 0
lthumb 25.1059 26.9452 0
rclavicle 7.92033e-16 -5.54112e-15 0
rhumerus -50.8159 8.64771 -89.6376
rradius 65.185 0 0
rwrist 20.1445 0 0
rhand -23.8818 -24.267 0
rfingers 7.12502 0 0
rthumb 2.59155 -54.231 0
485
root 4.29813 16.4545 -6.70416 0 0 0
lfemur -33.2792 -9.17173 -23.5568
ltibia 0 0 0
lfoot -21.297 -2.31582 0.00466939
ltoes 0 0 0
rfemur -39.7941 -0.171544 10.1877
rtibia 82.7011 -0 0
rfoot 18.3825 5.11896 -0.00911576
rtoes -17.285 0 0
lowerback 0 0 0
upperback 0 0 0
thorax -1.90698 -0.24728 0.539643
lowerneck -8.53074 -7.89972 -0.447729
upperneck 4.89073 -10.6356 1.87628
head 0 0 0
lclavicle 0 0 0
lhumerus -49.2092 -29.8393 110.769
lradius 0 0 0
lwrist 0 0 0
lhand 0 0 0
lfingers 0 0 0
lthumb 25.3459 26.955 0.000710782
rclavicle 0 0 0
rhumerus -50.2745 9.75559 -89.7298
rradius 0 0 0
rwrist 0 0 0
rhand -22.9473 -23.919 0.100937
rfingers 0 0 0
rthumb 3.48705 -53.7913 0.122228
486
root 4.36945 16.4652 -6.64877 0 0 0
lfemur -32.9564 -9.49429 -23.4911
ltibia 0 0 0
lfoot -21.4562 -2.47723 0.0102821
ltoes 0 0 0
rfemur -40.5034 0.119971 10.1045
rtibia 82.0475 -0 0
rfoot 18.041 5.26568 -0.0200743
rtoes -17.242 0 0
lowerback 0 0 0
upperback 0 0 0
thorax -1.96329 -0.238595 0.623027
lowerneck -8.55267 -8.02039 -0.543831
upperneck 5.10745 -10.7917 1.89558
head 0 0 0
lclavicle 0 0 0
lhumerus -49.1567 -30.0222 111.025
lradius 0 0 0
lwrist 0 0 0
lhand 0 0 0
lfingers 0 0 0
lthumb 25.6549 26.9677 0.00156521
rclavicle 0 0 0
rhumerus -49.5773 11.183 -89.8333
rradius 0 0 0
rwrist 0 0 0
rhand -21.7434 -23.4687 0.222495
rfingers 0 0 0
rthumb 4.64123 -53.2226 0.26943
